# xmcd
#
# Track frame offsets:
#	150
#	16715
#	32652
#	50893
#	67821
#	81136
#	97148
#	114561
#	131749
#	148164
#	163390
#	179764
#	195697
#	210532
#	224318
#	241134
#	257756
#	285577
#
# Disc length: 4332 seconds
#
# Revision: 1
# Processed by: cddbd v1.5.1PL0 Copyright (c) Steve Scherf et al.
# Submitted via: dBpowerAMP V4.0
#
DISCID=1310ea12
DTITLE=I calciatori italiani (serie A) - Da noi calciatori "un occhio di riguardo"
DYEAR=2004
DGENRE=Leggera Italiana
TTITLE0=Amico e' (Ancona)
TTITLE1=Io vagabondo (Brescia)
TTITLE2=Si puo' dare di piu' (Bologna)
TTITLE3=Generale (Chievo)
TTITLE4=Il gatto e la volpe (Empoli)
TTITLE5=Balliamo sul mondo (Inter)
TTITLE6=Il mio canto libero (Juventus)
TTITLE7=Come mai (Lecce)
TTITLE8=Ciao mamma (Milan)
TTITLE9=Diamante (Modena)
TTITLE10=Una splendida giornata (Parma)
TTITLE11=Terra promessa (Perugia)
TTITLE12=I migliori anni della nostra vita (Reggina)
TTITLE13=La canzone del sole (Roma/Lazio)
TTITLE14=Quatro amici al bar (Sampdoria)
TTITLE15=L'anno che verra' (Siena)
TTITLE16=Nel blu dipinto di blu (Udinese)
TTITLE17=DATA
EXTD=Italian soccer teams singing old italian songs to raise funds for the old folk
EXTT0=
EXTT1=
EXTT2=
EXTT3=
EXTT4=
EXTT5=
EXTT6=
EXTT7=
EXTT8=
EXTT9=
EXTT10=
EXTT11=
EXTT12=
EXTT13=
EXTT14=
EXTT15=
EXTT16=
EXTT17=
PLAYORDER=
